<mxfile host="Electron" agent="Mozilla/5.0 (Windows NT 10.0; Win64; x64) AppleWebKit/537.36 (KHTML, like Gecko) draw.io/26.2.2 Chrome/134.0.6998.178 Electron/35.1.2 Safari/537.36" version="26.2.2">
  <diagram name="Page-1" id="YPq1yd1bPiwS9xnb4lDO">
    <mxGraphModel dx="1030" dy="611" grid="1" gridSize="10" guides="1" tooltips="1" connect="1" arrows="1" fold="1" page="1" pageScale="1" pageWidth="850" pageHeight="1100" math="0" shadow="0">
      <root>
        <mxCell id="0" />
        <mxCell id="1" parent="0" />
        <mxCell id="m-b502bVPHDe9bVj19ou-1" value="" style="rounded=0;whiteSpace=wrap;html=1;fillColor=none;dashed=1;" parent="1" vertex="1">
          <mxGeometry x="30" y="120" width="120" height="470" as="geometry" />
        </mxCell>
        <mxCell id="m-b502bVPHDe9bVj19ou-2" value="&lt;font style=&quot;font-size: 20px;&quot;&gt;sources&lt;/font&gt;" style="rounded=0;whiteSpace=wrap;html=1;strokeColor=none;fillColor=default;" parent="1" vertex="1">
          <mxGeometry x="50" y="90" width="100" height="50" as="geometry" />
        </mxCell>
        <mxCell id="m-b502bVPHDe9bVj19ou-4" value="" style="rounded=0;whiteSpace=wrap;html=1;dashed=1;" parent="1" vertex="1">
          <mxGeometry x="190" y="120" width="570" height="480" as="geometry" />
        </mxCell>
        <mxCell id="m-b502bVPHDe9bVj19ou-6" value="&lt;font style=&quot;font-size: 20px;&quot;&gt;Data Warehouse&lt;/font&gt;" style="rounded=0;whiteSpace=wrap;html=1;strokeColor=none;" parent="1" vertex="1">
          <mxGeometry x="410" y="90" width="120" height="60" as="geometry" />
        </mxCell>
        <mxCell id="m-b502bVPHDe9bVj19ou-7" value="" style="whiteSpace=wrap;html=1;dashed=1;" parent="1" vertex="1">
          <mxGeometry x="800" y="120" width="140" height="480" as="geometry" />
        </mxCell>
        <mxCell id="m-b502bVPHDe9bVj19ou-13" value="&lt;font style=&quot;font-size: 20px;&quot;&gt;Consume&lt;/font&gt;" style="rounded=0;whiteSpace=wrap;html=1;strokeColor=none;" parent="1" vertex="1">
          <mxGeometry x="800" y="100" width="120" height="60" as="geometry" />
        </mxCell>
        <mxCell id="m-b502bVPHDe9bVj19ou-15" value="Bronze Layer" style="rounded=0;whiteSpace=wrap;html=1;fontStyle=1;fillColor=#ffe6cc;strokeColor=#d79b00;" parent="1" vertex="1">
          <mxGeometry x="220" y="180" width="130" height="35" as="geometry" />
        </mxCell>
        <mxCell id="m-b502bVPHDe9bVj19ou-17" value="&lt;span style=&quot;white-space: pre;&quot;&gt;&#x9;&lt;/span&gt;Silver Layer" style="rounded=0;whiteSpace=wrap;html=1;fontStyle=1;fillColor=#dae8fc;strokeColor=#6c8ebf;" parent="1" vertex="1">
          <mxGeometry x="400" y="177.5" width="140" height="35" as="geometry" />
        </mxCell>
        <mxCell id="m-b502bVPHDe9bVj19ou-19" value="Gold Layer" style="rounded=0;html=1;fontStyle=1;labelBorderColor=none;labelBackgroundColor=none;fillColor=#fff2cc;strokeColor=#d6b656;" parent="1" vertex="1">
          <mxGeometry x="590" y="180" width="150" height="30" as="geometry" />
        </mxCell>
        <mxCell id="m-b502bVPHDe9bVj19ou-20" value="" style="rounded=0;whiteSpace=wrap;html=1;dashed=1;strokeColor=#FFD966;" parent="1" vertex="1">
          <mxGeometry x="210" y="210" width="150" height="325" as="geometry" />
        </mxCell>
        <mxCell id="m-b502bVPHDe9bVj19ou-21" value="" style="rounded=0;whiteSpace=wrap;html=1;dashed=1;strokeColor=#FFD966;" parent="1" vertex="1">
          <mxGeometry x="580" y="210" width="170" height="330" as="geometry" />
        </mxCell>
        <mxCell id="m-b502bVPHDe9bVj19ou-22" value="" style="rounded=0;whiteSpace=wrap;html=1;dashed=1;strokeColor=light-dark(#E1D5E7,#EDEDED);fillColor=none;" parent="1" vertex="1">
          <mxGeometry x="387.5" y="215" width="165" height="330" as="geometry" />
        </mxCell>
        <mxCell id="m-b502bVPHDe9bVj19ou-24" value="" style="image;aspect=fixed;html=1;points=[];align=center;fontSize=12;image=img/lib/azure2/general/Folder_Blank.svg;" parent="1" vertex="1">
          <mxGeometry x="62.5" y="195.36" width="55" height="44.64" as="geometry" />
        </mxCell>
        <mxCell id="m-b502bVPHDe9bVj19ou-25" value="" style="image;aspect=fixed;html=1;points=[];align=center;fontSize=12;image=img/lib/azure2/general/File.svg;" parent="1" vertex="1">
          <mxGeometry x="100" y="220" width="32.47" height="40" as="geometry" />
        </mxCell>
        <mxCell id="m-b502bVPHDe9bVj19ou-26" value="" style="image;aspect=fixed;html=1;points=[];align=center;fontSize=12;image=img/lib/azure2/general/Folder_Blank.svg;" parent="1" vertex="1">
          <mxGeometry x="62.5" y="300" width="55" height="44.64" as="geometry" />
        </mxCell>
        <mxCell id="m-b502bVPHDe9bVj19ou-27" value="" style="image;aspect=fixed;html=1;points=[];align=center;fontSize=12;image=img/lib/azure2/general/File.svg;" parent="1" vertex="1">
          <mxGeometry x="90" y="335" width="32.47" height="40" as="geometry" />
        </mxCell>
        <mxCell id="m-b502bVPHDe9bVj19ou-28" value="CRM" style="text;html=1;align=center;verticalAlign=middle;whiteSpace=wrap;rounded=0;" parent="1" vertex="1">
          <mxGeometry x="50" y="250" width="50" height="10" as="geometry" />
        </mxCell>
        <mxCell id="m-b502bVPHDe9bVj19ou-32" value="ERP" style="text;html=1;align=center;verticalAlign=middle;whiteSpace=wrap;rounded=0;" parent="1" vertex="1">
          <mxGeometry x="45" y="355" width="60" height="20" as="geometry" />
        </mxCell>
        <mxCell id="m-b502bVPHDe9bVj19ou-38" value="" style="line;strokeWidth=2;html=1;" parent="1" vertex="1">
          <mxGeometry x="30" y="400" width="120" height="10" as="geometry" />
        </mxCell>
        <mxCell id="m-b502bVPHDe9bVj19ou-39" value="Objedct Type:Csv" style="text;html=1;align=center;verticalAlign=middle;whiteSpace=wrap;rounded=0;" parent="1" vertex="1">
          <mxGeometry x="30" y="420" width="95" height="30" as="geometry" />
        </mxCell>
        <mxCell id="m-b502bVPHDe9bVj19ou-40" value="" style="html=1;verticalLabelPosition=bottom;align=center;labelBackgroundColor=#ffffff;verticalAlign=top;strokeWidth=2;strokeColor=#d79b00;shadow=0;dashed=0;shape=mxgraph.ios7.icons.data;fillColor=#ffe6cc;" parent="1" vertex="1">
          <mxGeometry x="245" y="302.5" width="80" height="85" as="geometry" />
        </mxCell>
        <mxCell id="m-b502bVPHDe9bVj19ou-41" value="" style="html=1;verticalLabelPosition=bottom;align=center;labelBackgroundColor=#ffffff;verticalAlign=top;strokeWidth=2;strokeColor=#666666;shadow=0;dashed=0;shape=mxgraph.ios7.icons.data;fillColor=#f5f5f5;fontColor=#333333;" parent="1" vertex="1">
          <mxGeometry x="436.25" y="306.25" width="77.5" height="77.5" as="geometry" />
        </mxCell>
        <mxCell id="m-b502bVPHDe9bVj19ou-42" value="" style="html=1;verticalLabelPosition=bottom;align=center;labelBackgroundColor=#ffffff;verticalAlign=top;strokeWidth=2;strokeColor=#d6b656;shadow=0;dashed=0;shape=mxgraph.ios7.icons.data;fillColor=#fff2cc;" parent="1" vertex="1">
          <mxGeometry x="622.5" y="310" width="85" height="70" as="geometry" />
        </mxCell>
        <mxCell id="m-b502bVPHDe9bVj19ou-43" value="" style="shape=singleArrow;whiteSpace=wrap;html=1;fillColor=#dae8fc;strokeColor=#6c8ebf;" parent="1" vertex="1">
          <mxGeometry x="145" y="315" width="65" height="60" as="geometry" />
        </mxCell>
        <mxCell id="m-b502bVPHDe9bVj19ou-45" value="" style="shape=singleArrow;whiteSpace=wrap;html=1;fillColor=#dae8fc;strokeColor=#6c8ebf;" parent="1" vertex="1">
          <mxGeometry x="360" y="323.75" width="60" height="60" as="geometry" />
        </mxCell>
        <mxCell id="m-b502bVPHDe9bVj19ou-47" value="" style="shape=singleArrow;whiteSpace=wrap;html=1;fillColor=#dae8fc;strokeColor=#6c8ebf;" parent="1" vertex="1">
          <mxGeometry x="552.5" y="325" width="60" height="60" as="geometry" />
        </mxCell>
        <mxCell id="m-b502bVPHDe9bVj19ou-48" value="Raw Data" style="text;html=1;align=center;verticalAlign=middle;whiteSpace=wrap;rounded=0;" parent="1" vertex="1">
          <mxGeometry x="250" y="410" width="75" height="30" as="geometry" />
        </mxCell>
        <mxCell id="m-b502bVPHDe9bVj19ou-49" value="Clean,Standalization Data" style="text;html=1;align=center;verticalAlign=middle;whiteSpace=wrap;rounded=0;" parent="1" vertex="1">
          <mxGeometry x="420" y="410" width="110" height="30" as="geometry" />
        </mxCell>
        <mxCell id="m-b502bVPHDe9bVj19ou-50" value="Buisness Ready Data" style="text;html=1;align=center;verticalAlign=middle;whiteSpace=wrap;rounded=0;" parent="1" vertex="1">
          <mxGeometry x="605" y="410" width="120" height="30" as="geometry" />
        </mxCell>
      </root>
    </mxGraphModel>
  </diagram>
</mxfile>
